<svg xmlns="http://www.w3.org/2000/svg" width="344.143" height="365.626" viewBox="0 0 344.143 365.626"><defs><style>.a{fill:#fff;}.b{fill:#fcdc4a;}.c{fill:#211715;}</style></defs><path class="a" d="M223.67,74.449a48.616,48.616,0,0,0,6.2-9.1l.013-.033a17.842,17.842,0,0,1-20.27-3.053c.221,1.533.413,2.885.413,2.885A36.082,36.082,0,0,0,215.3,79.58a2.47,2.47,0,0,0,.82.9c.762.406,1.626-.188,2.294-.775A54.262,54.262,0,0,0,223.67,74.449Z"></path><path class="a" d="M4.051,218.245,2,219.427c0-.7,0-6.039.006-14.061-5.36,3.091,183.661-106.022,179.711-103.742-.006,8.151-.008,13.52-.008,14.032Z"></path><path class="a" d="M241.046,178.386a6.711,6.711,0,0,0-2-4.258,14.048,14.048,0,0,1-2.528.523c-4.884.469-9.516.746-13.835-1.581l-3.487-2.552c-4.11.614-8.647.843-11.868-.273a9.124,9.124,0,0,1-1.036-.438c-1.665,1.492-5.284,4.692-6.11,6.209a6.061,6.061,0,0,0-.416,5.416,5.878,5.878,0,0,0,4.1,2.965,13.536,13.536,0,0,0,5.208-.111,34.981,34.981,0,0,0,7.961-2.338,7.5,7.5,0,0,0,.056,2.651,5.565,5.565,0,0,0,3.028,3.555,10.7,10.7,0,0,0,5.893.858,32.1,32.1,0,0,0,8.708-2.255c1.818-.673,3.733-1.45,4.856-3.029A7.3,7.3,0,0,0,241.046,178.386Z"></path><path class="a" d="M225.4,122.7c-2.152.116-4.336.158-6.5.152-.254,0-.5,0-.758,0h-.114c-5.459-.019-10.734-.377-14.751-.7.008.24.011.373.011.373.233,11.4,1.383,37.319,1.9,46.628a7.788,7.788,0,0,0,2.134,1.1c3.221,1.116,7.758.887,11.868.273l3.487,2.552c4.319,2.327,8.951,2.05,13.835,1.581a11.285,11.285,0,0,0,4.378-1.333c.155-12.441.017-40.493-.751-52.7A88.738,88.738,0,0,1,225.4,122.7Z"></path><path class="a" d="M226.9,33.654c-11.5-3.45-18-.291-19.917,4.209a25.847,25.847,0,0,0-2.292,5.5,27.042,27.042,0,0,0-.527,3.622c-.029.323-.055.629-.076.9a17.917,17.917,0,0,0,31.6,12.892c2.23-.069,3.5-.046,5.332-.86a6.786,6.786,0,0,0,3.72-3.993,5.406,5.406,0,0,0-1.092-5.314,4.6,4.6,0,0,0-2.933-1.53s.939-8.513-6.728-12.263A49.135,49.135,0,0,0,226.9,33.654Z"></path><path class="a" d="M181.648,59.019a9.719,9.719,0,0,0-4.519,1.008,8.351,8.351,0,0,0-4.59,6.721,7.837,7.837,0,0,0,3.713,7.183,3.316,3.316,0,0,0,2.814.466l1.355-.535,7.1-4.6.18-1.622c.266-2.4-.178-5.511-2.385-7.339A5.99,5.99,0,0,0,181.648,59.019Z"></path><path class="a" d="M220.02,101.452c-1.511-3.853-3.122-9.853-5.067-15.289-7.277.38-13.889.769-20.355,1.034q3.517,12.226,7.642,24.365c2.1-.185,5.558-.377,7.958-.644Z"></path><path class="a" d="M215.653,102.946a4.649,4.649,0,0,0-.875.386c-4.988,2.888-3.6,10.13-.8,12.416,5.5,4.487,9.61,4.4,15.31,1.514,2.375-1.609,3.993-3.76,3.829-6.994-.123-2.422-.86-3.994-2.211-4.8a4.75,4.75,0,0,0-5.629.117,17.589,17.589,0,0,0-6.08-2.921A7.134,7.134,0,0,0,215.653,102.946Z"></path><path class="a" d="M283.787,299.414c.068-.045.135-.091.2-.139,0-2.3,0-5.158-.007-8.073-1.287-.052-2.654-.1-3.837-.159a7.226,7.226,0,0,1-4.209-1.1,5.842,5.842,0,0,1-1.048-2.565q-.073-.447-.144-.892c-1.316-.389-4.466.039-5.763.35a5.239,5.239,0,0,0-3.032,2.434,3.572,3.572,0,0,0-.425,1.73,3.678,3.678,0,0,0,.6,2.41,7.583,7.583,0,0,0,.541.688c2.1,2.385,5.1,3.744,8.04,4.96a15.2,15.2,0,0,0,5.14,1.423A6.792,6.792,0,0,0,283.787,299.414Z"></path><path class="a" d="M275.012,287.925c-.049-.184-.092-.367-.125-.545-.745-4.523-1.233-8.94-1.608-13.837-.125-1.63-.17-3.983-.285-5.615l-.035-.5c3.322,1.463,7.566,3.192,10.522,4.548l.5.231c0,2.755-.006,5.1-.006,7.38,0,2.96,0,7.351.006,11.616-1.288-.052-2.656-.1-3.84-.159a7.226,7.226,0,0,1-4.209-1.1A4.955,4.955,0,0,1,275.012,287.925Z"></path><path class="a" d="M257.553,250.8a1.564,1.564,0,0,1-1.581,0l-49.923-28.852a1.561,1.561,0,0,1-.632-.688l-.158.018V238.3l1.123.649c1.165.672,49.4,28.547,50.876,29.4,3.322-1.917,71.383-41.221,73.512-42.45v-17.38Z"></path><path class="a" d="M299.122,213.146l-31.512,18.2-21.81-12.6c2.73-1.579,28.1-16.229,31.51-18.2l21.812,12.6Z"></path><path class="a" d="M318.29,200.566a23.781,23.781,0,0,0-9.451.375c-4.618,1.067-8.921,3.166-13.176,5.253a22.652,22.652,0,0,0-6.184,5.145c-3.643,4.014-6.654,7.02-9.642,11.8a2.352,2.352,0,0,1-.781.933,1.43,1.43,0,0,1-1.11.132c-1.843-.665-4.821-1.509-7.265-2.131-1.778,2.466-3.726,8.72-4.46,14.569a1.118,1.118,0,0,0,.727,1.3c6.6,1.425,11.434,2.958,18.155,2.8a8,8,0,0,0,3.356-.8,5.478,5.478,0,0,0,.59-.341c-.739,2.1-1,2.716-1.731,4.8-.936,2.672-1.836,5.8-.4,8.218a7.72,7.72,0,0,0,3.053,2.638c4.54,2.518,9.8,3.053,14.931,2.742a55.683,55.683,0,0,0,7.292-1.362s12.376-5.446,18.179-11.007a138.984,138.984,0,0,0,.219-18.191c-.117-4.939-1.822-14.375-2.792-18.7a21.842,21.842,0,0,0-1.912-4.1,6.8,6.8,0,0,0-3.021-2.573A16.817,16.817,0,0,0,318.29,200.566Z"></path><path class="a" d="M260.635,221.336a9.131,9.131,0,0,0-4.272,1.606c-2.339,1.536-2.65,4.591-2.049,8.087a5.86,5.86,0,0,0,4.323,4.823,19.436,19.436,0,0,0,5.558.33l2.11-.126a46,46,0,0,1,3.215-11.89l-.062-.33a5.815,5.815,0,0,0-4.044-4.007c-2.029-.469-3.157,1.309-4.631,1.488Z"></path><path class="a" d="M313.573,203.838c4.761-3.99,6.442-11.12,7-15,1.185-8.33-4.734-15.675-12.394-17.707a18.536,18.536,0,0,0-17.155,4.1,19.172,19.172,0,0,0-6.292,13.944,15.085,15.085,0,0,0,2.3,8.4,10.733,10.733,0,0,0,7.121,4.791"></path><path class="a" d="M189.118,330.593a4.91,4.91,0,0,1,2.016-1,17.1,17.1,0,0,1,5.81-.044,8.688,8.688,0,0,0,1.009,1.271c2.9,3.17,6.9,3.234,9.565,3.726,0,3.208.006,6.456.007,9.086a7.566,7.566,0,0,1-4.3,1.139,16.912,16.912,0,0,1-5.718-1.583c-3.266-1.353-6.608-2.864-8.944-5.518a8.514,8.514,0,0,1-.6-.765,3.979,3.979,0,0,1-.674-2.641,5.307,5.307,0,0,1,.583-2.222A5.932,5.932,0,0,1,189.118,330.593Z"></path><path class="a" d="M181.092,295.751a1.564,1.564,0,0,1-1.581,0L129.588,266.9a1.562,1.562,0,0,1-.633-.687l-.157.017v17.022l1.123.648L180.8,313.3c3.321-1.918,71.383-41.222,73.512-42.45v-17.38Z"></path><path class="a" d="M221.011,258.257l-31.512,18.2-21.81-12.6c2.73-1.578,28.1-16.229,31.51-18.2l21.812,12.6Z"></path><path class="a" d="M214.756,245.561a13.394,13.394,0,0,0,5.164,1.677c.211-4.234-.013-9.5-2.179-13.147a9.733,9.733,0,0,0-9.189-4.653,18.611,18.611,0,0,0-.225,4.672,16.275,16.275,0,0,0,2.9,8.544A12.174,12.174,0,0,0,214.756,245.561Z"></path><path class="a" d="M183.9,266.331A9.05,9.05,0,0,0,179.9,267.9c-2.339,1.536-3.217,4.657-2.615,8.154.448,2.6,2.8,4.211,4.888,4.755a19.41,19.41,0,0,0,5.559.33l2.11-.126a45.992,45.992,0,0,1,3.215-11.889l-.062-.331a5.814,5.814,0,0,0-4.044-4.006c-2.029-.469-3.157,1.308-4.631,1.488C184.176,266.291,184.034,266.31,183.9,266.331Z"></path><path class="a" d="M241.829,245.521a23.8,23.8,0,0,0-9.451.375c-4.618,1.067-8.921,3.167-13.176,5.254a22.617,22.617,0,0,0-6.184,5.145c-3.643,4.013-6.654,7.019-9.643,11.8a2.332,2.332,0,0,1-.78.932,1.43,1.43,0,0,1-1.11.132c-1.843-.664-4.821-1.508-7.265-2.131-1.778,2.467-3.726,8.721-4.46,14.569a1.119,1.119,0,0,0,.727,1.3c6.6,1.424,11.434,2.957,18.155,2.8a7.986,7.986,0,0,0,3.356-.8,5.764,5.764,0,0,0,.59-.342c-.739,2.1-1,2.717-1.731,4.8-.936,2.672-1.836,5.8-.4,8.219a7.721,7.721,0,0,0,3.053,2.638c4.54,2.518,9.8,3.053,14.931,2.742a55.8,55.8,0,0,0,7.292-1.363s12.376-5.445,18.179-11.006a139,139,0,0,0,.219-18.192c-.117-4.938-1.822-14.375-2.792-18.7a21.9,21.9,0,0,0-1.912-4.105,6.79,6.79,0,0,0-3.021-2.573A16.819,16.819,0,0,0,241.829,245.521Z"></path><path class="a" d="M321.688,185.583c-.288-2.622-2.129-11.984-13.513-14.457a18.659,18.659,0,0,0-23.053,14.411,9.757,9.757,0,0,1,8.4,5.432c1.841,3.818.991,8.311.414,12.511a4.584,4.584,0,0,0,.228,2.83,4.53,4.53,0,0,0,2.2,1.529c3.289,1.649,10.372,3.232,19.1-.607a16.75,16.75,0,0,0,4.949-3.347,8.366,8.366,0,0,0,1.763-3.939C322.758,197.345,322.379,191.863,321.688,185.583Z"></path><path class="a" d="M217.741,234.091c2.166,3.644,2.39,8.913,2.179,13.147l.033.194V250.6l.874-.243a55.211,55.211,0,0,1,11.551-4.46,25.316,25.316,0,0,1,6.835-.658c3.659-4.429,4.907-8.2,4.794-14.568-.15-8.41-5.109-15.349-13.888-16.576a18.646,18.646,0,0,0-21.567,15.345A9.729,9.729,0,0,1,217.741,234.091Z"></path><path class="a" d="M312.192,256.632a55.683,55.683,0,0,1-7.292,1.362c-5.128.311-10.391-.224-14.931-2.742a7.728,7.728,0,0,1-3.053-2.638,5.045,5.045,0,0,1-.477-1.118l-14.294,8.254a13.321,13.321,0,0,0-.718,2.623c-.048.96-.094,1.937-.137,2.924a2,2,0,0,0,1.18,1.914c3.388,1.506,7.909,3.341,11.011,4.764l.5.244v-4.458c5.68,3.176,10.789,5.708,17.423,7.147a17.216,17.216,0,0,0,5.289.133c2.053-.326,4.311-1.155,5.444-2.555l.374-16Z"></path><path class="a" d="M219.822,26.877a20.685,20.685,0,0,0-2.72.892,17.073,17.073,0,0,0-6.459,4.9,21.257,21.257,0,0,0,11.188,8.193.87.87,0,0,0,.8-.028.879.879,0,0,0,.237-.559l.435-2.654,6.643,5.964a17.188,17.188,0,0,0,5.153,2.743l8.929,2.977a17.076,17.076,0,0,0,.169-9.29,17.653,17.653,0,0,0-6.14-9.645,19.22,19.22,0,0,0-11.153-4.125A24.885,24.885,0,0,0,219.822,26.877Z"></path><path class="a" d="M236.012,303.917l-4.776-1.351a25.478,25.478,0,0,1-2.8.384c-5.128.311-10.391-.224-14.931-2.742a7.721,7.721,0,0,1-3.053-2.638,5.046,5.046,0,0,1-.45-1.007l-.149-.042-14.172,8.184a13.331,13.331,0,0,0-.718,2.624c-.179,3.548.821,14.992,1.365,19.453a8.684,8.684,0,0,0,.306,2.16,6.331,6.331,0,0,0,1.316,1.879c2.775,3.032,6.556,3.222,9.21,3.664l2.521.024c0-3.676-.008-7.306-.014-9.441a3.154,3.154,0,0,1-1.5-2.688c0-1.881,0-4.165,0-5.588,0,0,0-1.5,0-3.714,5.423,3.007,10.393,5.4,16.773,6.785a17.216,17.216,0,0,0,5.289.134c2.053-.326,4.311-1.156,5.444-2.556l.332-.191Z"></path><path class="b" d="M267.4,237.944a1.119,1.119,0,0,1-.727-1.3c.024-.195.053-.391.08-.586l-2.106.125a19.41,19.41,0,0,1-5.559-.33,5.859,5.859,0,0,1-4.322-4.822c-.473-2.748-.364-5.21.832-6.89l-9.346-5.4c2.73-1.578,28.1-16.229,31.51-18.2l14.527,8.394a19.978,19.978,0,0,1,2.756-2.092,2.015,2.015,0,0,1-.433-.534,4.59,4.59,0,0,1-.229-2.83c.052-.372.105-.748.158-1.124a10.741,10.741,0,0,1-7.066-4.779,15.085,15.085,0,0,1-2.295-8.4,18.453,18.453,0,0,1,.4-3.637h-.012c.011-.051.027-.1.038-.151.032-.147.074-.29.11-.436.106-.437.225-.871.361-1.3.059-.184.12-.366.184-.548.147-.416.308-.825.482-1.23.064-.148.122-.3.189-.444.2-.433.415-.856.645-1.273l-5.959-3.443a1.56,1.56,0,0,0-1.579,0c-9.976,5.761-60.681,35.041-73.543,42.472a1.592,1.592,0,0,0,0,2.762l4.151,2.4a18.73,18.73,0,0,1,3.182-4.664,19.07,19.07,0,0,1,16.736-5.584c8.78,1.226,13.739,8.165,13.888,16.576.088,4.942-.65,8.32-2.692,11.654l14.658,8.471a1.564,1.564,0,0,0,1.581,0l18.724-10.812C273.756,239.441,270.813,238.68,267.4,237.944Z" style="fill: rgb(121, 97, 222);"></path><path class="b" d="M331.555,205.565l-9.026-5.215c-.1.427-.213.826-.344,1.2.383.155.762.324,1.134.51a6.8,6.8,0,0,1,3.021,2.573,21.914,21.914,0,0,1,1.912,4.106c.089.4.186.852.286,1.329l3.014-1.74A1.6,1.6,0,0,0,331.555,205.565Z" style="fill: rgb(121, 97, 222);"></path><path class="b" d="M190.94,282.9a1.12,1.12,0,0,1-.727-1.3c.025-.194.054-.39.081-.586l-2.107.126a19.4,19.4,0,0,1-5.558-.331c-2.089-.544-4.44-2.149-4.889-4.755a9.328,9.328,0,0,1,.817-6.184l-10.414-6.018c2.73-1.578,28.1-16.229,31.51-18.2l15.449,8.927a20.873,20.873,0,0,1,4.554-3.43q.811-.4,1.625-.794l-.874.243v-3.166l-.033-.195h0a13.388,13.388,0,0,1-5.165-1.677,12.18,12.18,0,0,1-3.529-2.906,16.276,16.276,0,0,1-2.9-8.544,18.607,18.607,0,0,1,.226-4.672h0a19.443,19.443,0,0,1,1.471-4.7l-5.313-3.07a1.56,1.56,0,0,0-1.579,0c-9.976,5.761-60.681,35.041-73.543,42.472a1.592,1.592,0,0,0,0,2.762l49.923,28.852a1.564,1.564,0,0,0,1.581,0l18.724-10.813C197.3,284.4,194.352,283.636,190.94,282.9Z" style="fill: rgb(121, 97, 222);"></path><path class="b" d="M255.094,250.521l-13.55-7.83a26.287,26.287,0,0,1-1.877,2.55,20.164,20.164,0,0,1,2.615.284,16.812,16.812,0,0,1,4.576,1.493,6.79,6.79,0,0,1,3.021,2.573,21.838,21.838,0,0,1,1.911,4.1c.09.4.187.852.287,1.33,1.174-.678,2.191-1.266,3.014-1.74A1.6,1.6,0,0,0,255.094,250.521Z" style="fill: rgb(121, 97, 222);"></path><path class="b" d="M180.875,73.866l-1.355.534a3.316,3.316,0,0,1-2.814-.466,7.836,7.836,0,0,1-3.713-7.183,8.353,8.353,0,0,1,4.59-6.721,9.706,9.706,0,0,1,4.519-1.007c.024,0,.048.006.072.007.017-26.474.036-55.391.036-57.039C165.393,11.7,16.237,97.829,2.527,105.75c-.016,2.36-.04,87.56-.043,99.6l112.6-65,10.718-6.188,1.287-.742,55.057-31.783c0-3.782.009-15,.018-28.613Z" style="fill: rgb(121, 97, 222);"></path><path class="b" d="M245.431,106.132a29.076,29.076,0,0,0,2.656-21.158,41.734,41.734,0,0,0-2.956-8.389,26.842,26.842,0,0,0-3.358-5.03c-2.417-2.831-8.1-6.987-11.72-6.552a49.086,49.086,0,0,1-11.636,14.7c-.668.587-1.532,1.181-2.294.775a2.47,2.47,0,0,1-.82-.9,36.2,36.2,0,0,1-5.416-15.553c-5.6,3.349-11.207,6.66-14.851,11.2-.614-.613-1.23-1.244-1.837-1.88-1.046-1.1-2.065-2.2-3.006-3.25-.508-.564-.993-1.111-1.447-1.628l-10.467,6.785c2.324,3.994,4.8,7.917,7.489,11.674,1.734,2.419,6.113,10.2,9.928,7.1l3.7,9.962c.276,4.4.17,13.774.484,17.867,5.469.438,15.835,1.367,25.518.844a91.967,91.967,0,0,0,16.942-2.578c0-2.6-.484-6.667-.484-6.667l-.237-2c.081-.089.161-.179.241-.269A28.374,28.374,0,0,0,245.431,106.132Zm-16.14,11.13c-5.7,2.884-9.807,2.973-15.31-1.514a8.392,8.392,0,0,1-2.522-6.045l-1.261,1.215c-2.4.267-5.856.459-7.958.644Q198.117,99.442,194.6,87.2c6.467-.265,13.079-.654,20.356-1.034,1.945,5.436,3.556,11.436,5.067,15.288l-1.206,1.163c.129.017.265.022.387.049a17.593,17.593,0,0,1,6.079,2.921,4.75,4.75,0,0,1,5.629-.117c1.351.807,2.088,2.379,2.211,4.8C233.284,113.5,231.666,115.653,229.291,117.262Z" style="fill: rgb(121, 97, 222);"></path><path class="b" d="M342.21,262.406c0-12-.012-26.9-.012-31.731a1.653,1.653,0,0,0-2.454-1.454c-5.971,3.313-17.646,10.081-24.023,13.9a5.011,5.011,0,0,0-2.454,4.3v31.77C322.256,273.885,333.45,267.4,342.21,262.406Z" style="fill: rgb(121, 97, 222);"></path><path class="b" d="M266.1,308.153c-.005-12.285-.013-27.542-.013-32.483a1.693,1.693,0,0,0-2.512-1.489c-6.112,3.393-18.064,10.32-24.592,14.224a5.133,5.133,0,0,0-2.512,4.4v32.523C245.668,319.9,257.128,313.261,266.1,308.153Z" style="fill: rgb(121, 97, 222);"></path><path class="b" d="M236.012,311.874v5.376l-.332.191c-1.133,1.4-3.391,2.23-5.444,2.556a17.216,17.216,0,0,1-5.289-.134,54.6,54.6,0,0,1-14.5-5.556l-2.269.216v2.269c0,1.423,0,3.707,0,5.588a3.154,3.154,0,0,0,1.5,2.688c0,.21,0,.447,0,.685,6.494,3.739,18.9,10.861,23.326,13.421a5.678,5.678,0,0,0,5.124,0l24.991-14.433a5.046,5.046,0,0,0,2.528-4.382V309.054Z" style="fill: rgb(121, 97, 222);"></path><path class="b" d="M312.725,266.941l-.13,5.548c-1.133,1.4-3.391,2.23-5.444,2.556a17.216,17.216,0,0,1-5.289-.134,54.608,54.608,0,0,1-14.5-5.557l-2.924.279v9.93c5.389,3.109,20.485,11.777,25.474,14.659a5.678,5.678,0,0,0,5.124,0l24.991-14.433a5.046,5.046,0,0,0,2.528-4.382V264.1Z" style="fill: rgb(121, 97, 222);"></path><path class="c" d="M179.72,80.911q0,17.37-.01,34.74l.991-1.727q-2.853,1.654-5.711,3.3l-13.2,7.627q-9.5,5.487-19,10.973l-22.931,13.242-24.929,14.4L69.594,178.09,45.788,191.837Q35.6,197.72,25.408,203.605L10.089,212.45l-8.318,4.8-.78.451L4,219.431q0-6.177.006-12.353.008-13.4.014-26.788l.018-32.066.015-27.771q0-4.709,0-9.418c0-1.623.109-3.288,0-4.909-.008-.12,0-.244,0-.365l-.991,1.727,7.569-4.375,13.827-7.987,18.694-10.8L65.036,71.695l23.65-13.657L112.617,44.22l22.825-13.179,20-11.545,15.791-9.117,10.094-5.827,1.446-.834L179.76,1.991q0,19.438-.013,38.876,0,9.078-.007,18.154c0,2.574,4,2.578,4,0q.009-26.222.019-52.443,0-2.293,0-4.587A2.019,2.019,0,0,0,180.751.264q-8.524,4.917-17.045,9.839L133,27.834,95.361,49.564,56.822,71.819Q40.46,81.267,24.1,90.717,13.935,96.588,3.773,102.46c-.816.472-1.651.922-2.453,1.418-1.239.767-1.26,1.727-1.26,2.958q0,4.4,0,8.794-.009,17.55-.019,35.1-.01,20.382-.022,40.765Q.008,204.582,0,217.669q0,.88,0,1.762a2.018,2.018,0,0,0,3.009,1.727l7.466-4.311,16.237-9.376,22.478-12.98L75.668,179.2l27.968-16.15L130.562,147.5l23.676-13.673,17.886-10.33q4.823-2.785,9.645-5.572c.285-.165.583-.318.86-.5,1.31-.849,1.081-2.287,1.082-3.636q0-9.387.007-18.774,0-7.055,0-14.109c0-2.574-4-2.578-4,0Z"></path><path class="c" d="M180.683,99.913l-5.739,3.314q-6.653,3.838-13.3,7.679L142.5,121.954l-22.977,13.263L94.352,149.749,68.924,164.427l-23.736,13.7L24.78,189.909l-15.071,8.7-8.023,4.632-.665.384c-2.229,1.287-.217,4.745,2.018,3.454l6.009-3.468,13.512-7.8,19.291-11.136,23.071-13.318L90.132,156.8l25.406-14.666,23.656-13.655,20.269-11.7,14.876-8.587,7.768-4.484.595-.344c2.229-1.286.217-4.744-2.019-3.454Z"></path><path class="c" d="M340.1,276.7q0,12.433.007,24.867c0,2.574,4,2.578,4,0q0-12.433-.007-24.867c0-2.574-4-2.578-4,0Z"></path><path class="c" d="M310.34,294.563v24.176c0,2.573,4,2.578,4,0V294.563c0-2.574-4-2.578-4,0Z"></path><path class="c" d="M281.872,268.867a74.429,74.429,0,0,0,16.018,7.222c4.922,1.4,11.863,2.128,15.666-2.189,1.695-1.925-1.123-4.765-2.829-2.829-1.425,1.619-3.851,2.081-5.918,2.111a22.474,22.474,0,0,1-7.08-1.316,72.867,72.867,0,0,1-13.839-6.453c-2.244-1.266-4.263,2.188-2.018,3.454Z"></path><path class="c" d="M270.211,259.219a17.546,17.546,0,0,0-.912,5.854,4.145,4.145,0,0,0,1.071,3.051,6.752,6.752,0,0,0,2.41,1.394c3.226,1.4,6.491,2.718,9.691,4.18a2.048,2.048,0,0,0,2.736-.718,2.024,2.024,0,0,0-.718-2.736c-2.894-1.322-5.843-2.525-8.767-3.781-.692-.3-1.386-.593-2.072-.9a3.919,3.919,0,0,1-.474-.243c.43.267-.217-.259.135.113q-.139-.262-.045-.064c.056.136.055.109,0-.081.023.22.032.255.029.1q0-.157.009-.315c.017-.454.041-.907.063-1.361.011-.224.022-.449.034-.673,0-.058.03-.657,0-.35a9.671,9.671,0,0,1,.674-2.406,2.01,2.01,0,0,0-1.4-2.461,2.059,2.059,0,0,0-2.461,1.4Z"></path><path class="c" d="M283.863,296.4c-1.085,2.07-3.513,2.368-5.587,1.824a27.9,27.9,0,0,1-7.733-3.44c-1.532-.984-4.184-2.965-2.54-4.962,1.312-1.592,4.125-1.59,6.02-1.456a2,2,0,0,0,0-4,18.638,18.638,0,0,0-3.932.249,8.011,8.011,0,0,0-3.491,1.131,6.486,6.486,0,0,0-2.514,8.118c1.213,2.515,4.037,4.3,6.444,5.507,2.721,1.367,5.73,2.767,8.786,3.075a8.177,8.177,0,0,0,8-4.027c1.194-2.278-2.257-4.3-3.454-2.019Z"></path><path class="c" d="M270.994,267.928c.375,5.7.708,11.358,1.511,17.024.344,2.431.5,5.642,2.875,7.023,2.48,1.443,5.875,1.117,8.64,1.229,2.574.1,2.569-3.9,0-4-1.292-.052-2.585-.094-3.876-.161a5.578,5.578,0,0,1-2.9-.613c.249.175.121.237.036-.05-.064-.214-.169-.424-.236-.641a11.951,11.951,0,0,1-.364-1.738q-.293-1.843-.529-3.7c-.606-4.787-.839-9.568-1.156-14.377-.168-2.555-4.169-2.574-4,0Z"></path><path class="c" d="M224.749,247.254c-1.263-.738-2.534-1.464-3.8-2.2a2.076,2.076,0,0,0-1.541-.2,2,2,0,0,0-1.4,2.461,2.091,2.091,0,0,0,.92,1.2c1.265.736,2.536,1.462,3.8,2.2a2.076,2.076,0,0,0,1.541.2,2,2,0,0,0,1.4-2.461,2.091,2.091,0,0,0-.92-1.2Z"></path><path class="c" d="M329.761,224.164c-.086.052-.174.1-.26.15a1.923,1.923,0,0,0-.955,1.993,1.486,1.486,0,0,0,.237.743l.313.405a2,2,0,0,0,.882.515l.532.071a1.987,1.987,0,0,0,1.009-.273c.087-.05.175-.1.26-.15a1.923,1.923,0,0,0,.955-1.993,1.486,1.486,0,0,0-.237-.743l-.313-.405a2.007,2.007,0,0,0-.882-.515l-.532-.071a1.987,1.987,0,0,0-1.009.273Z"></path><path class="c" d="M328.77,208.521v25.7c0,2.574,4,2.578,4,0v-25.7c0-2.574-4-2.578-4,0Z"></path><path class="c" d="M259.53,277.341v-26.55c0-2.574-4-2.578-4,0v26.55c0,2.574,4,2.578,4,0Z"></path><path class="c" d="M321.061,202.068q3.894,2.259,7.8,4.509l.669.386c.115.066.539.411.671.392q-.356-.291-.13-.076c-.185-.258-.22-.3-.107-.126.187.316-.157-.432-.035-.061q.063.318-.027-.2c-.006.164,0,.149.024-.044s.033-.206,0-.046c-.062.2-.033.147.087-.161a1.549,1.549,0,0,1-.114.2l.168-.223q-.225.214.132-.076a2.455,2.455,0,0,1-.215.13c-.282.166-.566.327-.849.491q-1.024.591-2.051,1.176a2,2,0,0,0,2.018,3.454q1.158-.659,2.31-1.326a4.782,4.782,0,0,0,2.055-1.8,3.68,3.68,0,0,0,.048-3.321,4.106,4.106,0,0,0-1.821-1.744q-4.31-2.484-8.612-4.979a2,2,0,1,0-2.018,3.454Z"></path><path class="c" d="M287.13,178.151h-.01l1.009.273c-1.971-1.143-3.917-2.408-5.95-3.44-1.785-.906-3.261-.2-4.811.7l-5.793,3.346-17.5,10.108q-19.922,11.5-39.842,23.008l-7.545,4.358c-1.557.9-3.276,1.741-3.413,3.793-.213,3.172,3.67,4.469,5.921,5.77,2.232,1.291,4.249-2.165,2.018-3.454q-1.714-.992-3.431-1.982c-.093-.054-.657-.453-.719-.418.1-.057.174.444.189.351-.063.4-.279.368.148.148.852-.438,1.67-.964,2.5-1.443l6.751-3.9,18-10.393,37.14-21.447,6.738-3.892,1.184-.684a2.855,2.855,0,0,0,.54-.312c.048-.047.135-.055.182-.1.075-.08-.351-.29-.094,0a5.447,5.447,0,0,0,1.2.693l1.6.927c1.1.635,2.687,1.994,3.992,1.994,2.574,0,2.578-4,0-4Z"></path><path class="c" d="M241.31,244.321h.01l-1.009-.273q5.465,3.163,10.931,6.322c1.1.633,2.183,1.287,3.29,1.9a4.085,4.085,0,0,0,4.412.026c6.17-3.428,12.235-7.058,18.345-10.589,2.229-1.288.217-4.746-2.018-3.454q-8.987,5.193-17.976,10.376a2.645,2.645,0,0,0-.5.291l-.249.143q.705.109.305-.077c-.182-.275-.9-.521-1.187-.686l-3.563-2.058-4.852-2.805-2.8-1.619c-.907-.525-2.05-1.5-3.136-1.5-2.574,0-2.578,4,0,4Z"></path><path class="c" d="M256.139,222.4c-3.109-1.8-6.209-3.611-9.33-5.39v3.454q13.24-7.662,26.494-15.3l5.016-2.9H276.3c4.836,2.813,9.688,5.6,14.53,8.4,2.231,1.292,4.248-2.163,2.018-3.454-4.841-2.8-9.694-5.587-14.53-8.4a2.02,2.02,0,0,0-2.018,0q-13.422,7.754-26.846,15.5-2.333,1.347-4.664,2.7a2.019,2.019,0,0,0,0,3.454c3.12,1.779,6.22,3.593,9.33,5.39,2.233,1.29,4.249-2.165,2.018-3.454Z"></path><path class="c" d="M281.972,279.611q0,10.977.016,21.952c0,2.574,4,2.578,4,0q0-10.976-.016-21.952c0-2.573-4-2.578-4,0Z"></path><path class="c" d="M321.2,203.48a8.011,8.011,0,0,1,4.533,5.315,50.691,50.691,0,0,1,1.555,7.89,157.933,157.933,0,0,1,1.724,17.4c.14,2.56,4.141,2.577,4,0a168.6,168.6,0,0,0-2.062-19.609c-.5-2.876-.858-5.874-2.118-8.531a14.2,14.2,0,0,0-2.168-3.6,11.841,11.841,0,0,0-4.4-2.717,2.015,2.015,0,0,0-2.461,1.4,2.051,2.051,0,0,0,1.4,2.461Z"></path><path class="c" d="M293.581,205.114c-3.476,2.252-6.13,5.445-8.881,8.493-1.244,1.379-2.452,2.786-3.591,4.253-.615.793-1.214,1.6-1.784,2.424q-.5.723-.97,1.464-.207.322-.406.65.51-.218-.163-.061h1.063a33.7,33.7,0,0,1-3.576-1.086q-2.021-.593-4.061-1.109a2.071,2.071,0,0,0-2.259.92c-2,2.875-2.982,6.611-3.757,9.977q-.342,1.485-.6,2.987a11.621,11.621,0,0,0-.345,3.247c.307,2.414,2.571,2.675,4.527,3.121a92.964,92.964,0,0,0,11.516,2.171c4.055.4,8.112.445,11.289-2.451a77.568,77.568,0,0,0,7.578-7.869c1.628-1.97-1.187-4.815-2.828-2.828a88.846,88.846,0,0,1-7.156,7.47c-1.646,1.578-3.26,1.889-5.51,1.864a38.162,38.162,0,0,1-6.026-.549c-2.013-.345-4.006-.792-6-1.25-.6-.138-1.2-.278-1.8-.415-.377-.086-1.273-.473-1.639-.368q-.577-.224.015.472.055-.429.123-.855c.095-.62.2-1.239.323-1.855.7-3.633,1.591-7.757,3.741-10.851l-2.259.92c1.36.347,2.715.713,4.062,1.108a19.623,19.623,0,0,0,3.842,1.121,3.679,3.679,0,0,0,3.433-1.945c.816-1.245,1.617-2.49,2.518-3.676,1.593-2.1,3.388-4.033,5.167-5.969a34.747,34.747,0,0,1,6.429-6.071c2.153-1.4.151-4.859-2.018-3.454Z"></path><path class="c" d="M287.1,239.11c-1.245,3.536-3.281,7.444-2.9,11.285.454,4.549,4.423,6.8,8.357,8.183,6.55,2.3,13.564,1.639,20.162-.018,2.5-.627,1.438-4.485-1.064-3.857-5.4,1.357-10.94,1.994-16.41.52-2.766-.746-7.1-2.143-7.084-5.616.019-3.2,1.745-6.456,2.793-9.434.856-2.433-3.007-3.479-3.857-1.063Z"></path><path class="c" d="M271.387,223.3c-.652-2.945-3.891-5.776-6.987-5.53-1.479.117-2.486.959-3.774,1.548.4-.184-.356.084-.116.031-.424.094-.87.113-1.3.2a10.634,10.634,0,0,0-2.284.778,8.523,8.523,0,0,0-3.485,2.728,8.387,8.387,0,0,0-1.343,4.078c-.3,2.949.288,6.383,2.421,8.567,2.5,2.563,6.326,2.659,9.674,2.477a2.045,2.045,0,0,0,2-2,2.018,2.018,0,0,0-2-2,23.505,23.505,0,0,1-4.006-.061,5.254,5.254,0,0,1-2.26-.751,4.13,4.13,0,0,1-1.369-1.685,9.142,9.142,0,0,1-.506-3.116,11.085,11.085,0,0,1,.053-1.5,11.633,11.633,0,0,1,.3-1.159c-.076.186.1-.192.115-.227.049-.089.1-.179.15-.265s.108-.172.167-.253c.2-.267-.162.174.068-.067a3.581,3.581,0,0,1,1.048-.789,7.43,7.43,0,0,1,2.826-.987,8.231,8.231,0,0,0,2.947-1.162,5.846,5.846,0,0,1,.613-.331c-.341.146.531-.116.163-.065a1.75,1.75,0,0,1,1.223.335,3.653,3.653,0,0,1,1.8,2.271,2,2,0,1,0,3.857-1.063Z"></path><path class="c" d="M295.288,218.827q.153.33.3.664l-.2-.478a22.846,22.846,0,0,1,.963,2.85,2.068,2.068,0,0,0,.919,1.195A2,2,0,0,0,300,222.34a2.084,2.084,0,0,0,.2-1.541,25.45,25.45,0,0,0-1.459-3.991,2.01,2.01,0,0,0-1.195-.919,2.045,2.045,0,0,0-1.542.2,2.017,2.017,0,0,0-.919,1.195l-.071.531a1.991,1.991,0,0,0,.273,1.01Z"></path><path class="c" d="M283.279,184.613a18.961,18.961,0,0,0,1.35,12.831,12.9,12.9,0,0,0,8.984,6.852,2.059,2.059,0,0,0,2.46-1.4,2.016,2.016,0,0,0-1.4-2.46c-6.79-1.156-8.854-8.855-7.54-14.763a2.044,2.044,0,0,0-1.4-2.46,2.021,2.021,0,0,0-2.46,1.4Z"></path><path class="c" d="M323.688,185.583a18.7,18.7,0,0,0-7.219-12.948,22.075,22.075,0,0,0-24.544-.624,21.172,21.172,0,0,0-8.732,12.994,2.03,2.03,0,0,0,1.929,2.532,7.81,7.81,0,0,1,5.815,3.019c1.615,2.1,1.808,4.826,1.658,7.378-.083,1.4-.279,2.785-.474,4.17a9.107,9.107,0,0,0,.046,4.6c.793,2.085,3.171,2.973,5.122,3.685a24.127,24.127,0,0,0,13.309.548c4.805-1.062,10.9-3.442,12.873-8.367a17.731,17.731,0,0,0,.984-6.926c-.052-3.363-.4-6.723-.767-10.064a2.059,2.059,0,0,0-2-2,2.013,2.013,0,0,0-2,2c.31,2.846.6,5.7.721,8.561a21.242,21.242,0,0,1-.257,5.655,7,7,0,0,1-3.693,4.64,23.045,23.045,0,0,1-7.129,2.689,19.7,19.7,0,0,1-11.4-.755,7.1,7.1,0,0,1-1.87-.917c-.609-.663-.072-2.32.042-3.138a29.929,29.929,0,0,0,.358-8.288,11.942,11.942,0,0,0-11.335-10.493l1.928,2.532a16.756,16.756,0,0,1,16.731-13.449c6.042.077,11.839,2.851,14.54,8.384a15.35,15.35,0,0,1,1.007,2.805q.153.588.264,1.186c.035.186.061.373.094.559.082.455-.054-.464,0,.029a2.061,2.061,0,0,0,2,2A2.012,2.012,0,0,0,323.688,185.583Z"></path><path class="c" d="M281.985,269.629v9.931a2.012,2.012,0,0,0,.99,1.727q11.38,6.564,22.775,13.1c1.7.982,3.352,2.139,5.351,2.373,2.664.31,4.657-.913,6.857-2.183l13.231-7.641,7.585-4.381a13.206,13.206,0,0,0,3.568-2.494,7.334,7.334,0,0,0,1.76-4.66c.091-2.574-3.909-2.571-4,0-.082,2.353-2.418,3.164-4.177,4.18l-6.432,3.714-12.81,7.4c-1.519.877-3.191,2.285-5.033,2.121-1.44-.129-2.869-1.3-4.1-2q-5.631-3.243-11.265-6.479t-11.295-6.5l.991,1.727v-9.931c0-2.574-4-2.578-4,0Z"></path><path class="c" d="M314.47,294.563v-44.33c0-1.3-.25-2.921.491-4.057a6.984,6.984,0,0,1,2.527-1.894q1.548-.919,3.1-1.832,7.031-4.134,14.113-8.18,1.584-.9,3.17-1.8c.284-.16,2.709-1.246,2.712-1.519,0,.225-.5-.086-.457-.1-.24.065.118-.269-.041-.012-.1.154,0,.689,0,.875q0,1,0,1.994,0,5.876,0,11.753.006,14.97.01,29.94c0,2.574,4,2.578,4,0q0-14.013-.01-28.025,0-6.414,0-12.829a28.94,28.94,0,0,0-.064-4.418,3.7,3.7,0,0,0-2.761-3.017c-1.458-.336-2.639.347-3.863,1.032-4.728,2.647-9.42,5.359-14.1,8.086q-3.517,2.048-7.023,4.119c-2.367,1.4-4.718,2.723-5.533,5.559a17.219,17.219,0,0,0-.27,4.684v43.969c0,2.573,4,2.578,4,0Z"></path><path class="c" d="M313.477,282.13q14.727-8.721,29.616-17.168c2.24-1.27.226-4.727-2.019-3.454q-14.889,8.439-29.616,17.168c-2.213,1.31-.2,4.77,2.019,3.454Z"></path><path class="c" d="M263.633,321.652q0,12.433.008,24.867c0,2.574,4,2.578,4,0q0-12.433-.008-24.867c0-2.574-4-2.579-4,0Z"></path><path class="c" d="M233.879,339.518v24.176c0,2.574,4,2.578,4,0V339.518c0-2.574-4-2.578-4,0Z"></path><path class="c" d="M193.751,304.179c-1.1,2.96-.8,6.006-.61,9.094.2,3.259.471,6.514.788,9.763.122,1.249.274,2.5.4,3.745a8.983,8.983,0,0,0,.738,3.512,9.862,9.862,0,0,0,1.749,2.236c2.712,2.7,6.2,3.3,9.811,3.881a2.064,2.064,0,0,0,2.461-1.4,2.018,2.018,0,0,0-1.4-2.461c-3.02-.486-6.12-.779-8.328-3.145-1.033-1.107-1-2.27-1.158-3.7-.144-1.294-.272-2.591-.392-3.888-.275-2.949-.516-5.9-.691-8.859-.157-2.639-.456-5.2.486-7.717.9-2.415-2.964-3.458-3.858-1.064Z"></path><path class="c" d="M205.41,313.823a74.556,74.556,0,0,0,16.019,7.222c4.922,1.4,11.863,2.127,15.665-2.19,1.7-1.925-1.122-4.764-2.828-2.828-1.425,1.618-3.851,2.08-5.918,2.11a22.446,22.446,0,0,1-7.08-1.316,72.773,72.773,0,0,1-13.839-6.452c-2.244-1.267-4.263,2.187-2.019,3.454Z"></path><path class="c" d="M207.883,340.34c-1.168,2.228-3.786,2.759-6.084,2.228a31.036,31.036,0,0,1-8.1-3.377c-1.884-1.079-4.839-2.839-4.347-5.373.557-2.869,4.227-2.581,6.415-2.407a2.018,2.018,0,0,0,2-2,2.04,2.04,0,0,0-2-2c-3.928-.312-8.638.357-10.09,4.676a6.833,6.833,0,0,0,.56,5.829,14.607,14.607,0,0,0,4.2,3.962,30.8,30.8,0,0,0,5.047,2.612,27.157,27.157,0,0,0,6.029,2.089c3.772.644,7.959-.661,9.825-4.22,1.194-2.278-2.257-4.3-3.454-2.019Z"></path><path class="c" d="M253.3,269.124c-.086.052-.174.1-.26.15a1.923,1.923,0,0,0-.955,1.993,1.486,1.486,0,0,0,.237.743l.313.405a2,2,0,0,0,.882.515l.532.071a1.987,1.987,0,0,0,1.009-.273c.087-.05.175-.1.26-.15a1.923,1.923,0,0,0,.955-1.993,1.486,1.486,0,0,0-.237-.743l-.313-.4a2.007,2.007,0,0,0-.882-.515l-.532-.071a1.987,1.987,0,0,0-1.009.273Z"></path><path class="c" d="M126.8,266.229V323.3c0,2.574,4,2.578,4,0V266.229c0-2.574-4-2.578-4,0Z"></path><path class="c" d="M256.31,279.181v-26.73c0-2.574-4-2.578-4,0v26.73c0,2.574,4,2.578,4,0Z"></path><path class="c" d="M179.064,295.751v57.067c0,2.574,4,2.578,4,0V295.751c0-2.573-4-2.578-4,0Z"></path><path class="c" d="M211.019,223c-1.823-1.05-3.63-2.274-5.538-3.161-1.571-.73-2.934-.156-4.307.639l-4.629,2.676-14.141,8.17q-17.75,10.253-35.5,20.5l-14.1,8.143-2.515,1.453a9.116,9.116,0,0,0-2.716,1.875A3.639,3.639,0,0,0,128.7,268.7c.788.493,1.614.933,2.418,1.4l33.134,19.15,12.949,7.483a8,8,0,0,0,2.555,1.168c1.531.271,2.8-.682,4.054-1.408q5.07-2.931,10.143-5.859l6.865-3.961c2.23-1.286.218-4.744-2.018-3.454q-6.144,3.543-12.285,7.09l-4.327,2.5-1.354.783a2.759,2.759,0,0,0-.569.329c-.275.292.17.08.1.02a10.894,10.894,0,0,0-1.741-1.006l-2.317-1.339-6.434-3.718-32.785-18.948-5.665-3.274c-.173-.1-.344-.211-.521-.3-.044-.023-.137-.106-.186-.108-.431-.015.107-.084,0,.042.117-.134.031.513,0,.467.159.238-.3.041,0,.052.139.006.455-.263.58-.335l2.219-1.282,12.719-7.346,33.778-19.508,14.842-8.574,5.55-3.207,2.137-1.236.862-.5a2.781,2.781,0,0,0,.387-.223,1.069,1.069,0,0,1,.182-.1c.255-.121-.349-.15-.09,0,1.7,1,3.414,1.981,5.125,2.966,2.234,1.287,4.251-2.168,2.018-3.454Z"></path><path class="c" d="M240.081,244.418q5.213,3.018,10.43,6.027l1.868,1.08.839.485c.138.079.278.154.413.238l-.129-.115c.158.164.156.153-.008-.034q-.114-.332-.05-.121t-.007-.154c-.031.442.139-.308-.017.074a.578.578,0,0,1,.2-.344q-.209.2-.051.057c.117-.094.083-.082-.1.038-.111.063-.221.127-.33.191q-1.258.726-2.515,1.454a2,2,0,1,0,2.018,3.454c1.924-1.113,4.762-2.144,4.8-4.77a3.677,3.677,0,0,0-1.788-3.184c-.613-.386-1.259-.728-1.886-1.09q-5.834-3.369-11.664-6.74c-2.232-1.292-4.248,2.163-2.018,3.454Z"></path><path class="c" d="M202.04,271.211a2.077,2.077,0,0,0,1.085-.312l.13-.077.253-.149c.173-.1.346-.2.521-.3a1.923,1.923,0,0,0,.955-1.993,1.486,1.486,0,0,0-.237-.743l-.313-.4a2.007,2.007,0,0,0-.882-.515l-.532-.071a1.987,1.987,0,0,0-1.009.273c-.328.179-.649.369-.97.56l1.009-.273h-.01a1.516,1.516,0,0,0-.771.172,1.806,1.806,0,0,0-1.057,1.057,1.516,1.516,0,0,0-.172.771l.071.532a1.992,1.992,0,0,0,.515.882l.405.313a1.987,1.987,0,0,0,1.009.273Z"></path><path class="c" d="M179.1,268.124c-3.467-1.993-6.981-3.924-10.4-6v3.454q13.24-7.662,26.494-15.3l5.016-2.9h-2.018c5.117,3.03,10.3,5.955,15.45,8.93,2.233,1.29,4.249-2.165,2.018-3.454-5.149-2.975-10.332-5.9-15.45-8.93a2.015,2.015,0,0,0-2.018,0q-13.422,7.753-26.846,15.5-2.333,1.347-4.664,2.7a2.02,2.02,0,0,0,0,3.454c3.418,2.076,6.932,4.007,10.4,6,2.235,1.285,4.252-2.17,2.018-3.454Z"></path><path class="c" d="M205.511,324.567q0,10.976.016,21.952c0,2.574,4,2.578,4,0q0-10.976-.016-21.952c0-2.574-4-2.578-4,0Z"></path><path class="c" d="M219.92,245.238a10.848,10.848,0,0,1-7.421-4.219,14.924,14.924,0,0,1-2.228-8.118,16.92,16.92,0,0,1,8.1-14.679,17.448,17.448,0,0,1,15.661-.958,14.092,14.092,0,0,1,7.719,10.575,22.5,22.5,0,0,1-.182,8.584,17.635,17.635,0,0,1-3.774,7.409c-1.616,1.977,1.2,4.823,2.829,2.828a22.8,22.8,0,0,0,4.521-8.06,26.218,26.218,0,0,0,.766-9.636c-.586-5.967-3.53-11.606-8.858-14.632-5.877-3.337-13.528-3.153-19.51-.2A20.879,20.879,0,0,0,206.3,231.691a19.023,19.023,0,0,0,2.86,11.506,15.151,15.151,0,0,0,10.764,6.041,2.012,2.012,0,0,0,2-2,2.047,2.047,0,0,0-2-2Z"></path><path class="c" d="M208.906,231.407a7.924,7.924,0,0,1,7.723,4.882c1.46,3.384,1.463,7.335,1.291,10.949a2,2,0,0,0,4,0c.214-4.515,0-9.342-2.068-13.455a11.8,11.8,0,0,0-10.946-6.376,2.044,2.044,0,0,0-2,2,2.018,2.018,0,0,0,2,2Z"></path><path class="c" d="M219.876,274.367a62.352,62.352,0,0,1-4.748,5.124c-1.944,1.881-3.583,4.072-6.488,4.2a37.844,37.844,0,0,1-8.722-.758c-1.511-.29-3.012-.63-4.511-.975a29.734,29.734,0,0,1-4.657-1.109l.882.515c.257.24.071.238.178-.149.1-.36.119-.78.183-1.153q.177-1.038.4-2.068c.292-1.366.633-2.724,1.031-4.063a20.125,20.125,0,0,1,2.525-5.891l-2.259.92c1.492.381,2.979.783,4.455,1.222,1.211.36,2.629,1.092,3.907,1.029a3.86,3.86,0,0,0,3.057-2.111,49.608,49.608,0,0,1,2.907-4.144c2.008-2.528,4.244-4.87,6.42-7.251a22.1,22.1,0,0,1,6.595-5.23c6.009-2.948,12.428-5.836,19.289-5.156,2.521.25,6.143,1.1,7.5,3.486a21.716,21.716,0,0,1,1.355,2.675,23.516,23.516,0,0,1,.953,4.222c.675,3.574,1.27,7.173,1.68,10.789.4,3.5.529,7.037.745,10.55.157,2.557,4.158,2.575,4,0a180.214,180.214,0,0,0-2.2-20.388,29.284,29.284,0,0,0-2.2-8.217,13.161,13.161,0,0,0-1.942-3.143,11.277,11.277,0,0,0-4.069-2.582c-6.591-2.735-14-1.351-20.393,1.247a47.475,47.475,0,0,0-9.509,4.706,43.938,43.938,0,0,0-6.792,6.581,71.874,71.874,0,0,0-7.085,8.744q-.237.359-.468.721-.208.327-.409.659a.668.668,0,0,1,.563-.158c0-.009-1.709-.542-1.873-.594-1.79-.558-3.6-1.05-5.415-1.515a2.072,2.072,0,0,0-2.259.92c-2.013,2.874-2.975,6.632-3.757,10q-.343,1.479-.6,2.976a11.5,11.5,0,0,0-.341,3.231c.307,2.407,2.578,2.672,4.527,3.118a91.21,91.21,0,0,0,11.511,2.168c4.045.394,8.128.457,11.294-2.446A79.038,79.038,0,0,0,222.7,277.2c1.628-1.97-1.187-4.815-2.828-2.828Z"></path><path class="c" d="M210.641,284.065c-1.245,3.537-3.281,7.444-2.9,11.286.454,4.548,4.423,6.8,8.356,8.183,6.551,2.3,13.565,1.639,20.163-.018,2.5-.627,1.438-4.486-1.064-3.857-5.4,1.357-10.94,1.994-16.41.519-2.766-.745-7.1-2.143-7.084-5.616.019-3.2,1.745-6.455,2.793-9.434.856-2.433-3.007-3.479-3.857-1.063Z"></path><path class="c" d="M194.926,268.259c-.658-2.972-3.961-5.845-7.092-5.517a6.062,6.062,0,0,0-2.24.721c-.233.123-.456.262-.683.4-.11.066-.22.133-.332.2-.06.034-.535.266-.342.191.219-.085-.132.035-.185.047-.374.084.629-.083-.269.05-.427.063-.852.121-1.273.218a10.855,10.855,0,0,0-2.26.827,8.725,8.725,0,0,0-5,6.8c-.441,3.1.1,6.466,2.62,8.565,2.792,2.324,6.37,2.57,9.865,2.379a2.045,2.045,0,0,0,2-2,2.02,2.02,0,0,0-2-2,23.3,23.3,0,0,1-4.006-.06,10.681,10.681,0,0,1-1.211-.251,3.543,3.543,0,0,1-1.056-.427,4.278,4.278,0,0,1-1.871-1.737,6.191,6.191,0,0,1-.485-2.83,5.893,5.893,0,0,1,.115-1.279,8.587,8.587,0,0,1,.408-1.337,3.82,3.82,0,0,1,1.636-1.816,7.629,7.629,0,0,1,3.053-1.124,7.866,7.866,0,0,0,2.865-1.114,6.3,6.3,0,0,1,.7-.381c-.337.145.534-.112.163-.065a1.58,1.58,0,0,1,1.116.276,3.708,3.708,0,0,1,1.91,2.331,2,2,0,1,0,3.857-1.064Z"></path><path class="c" d="M218.827,263.782q.153.33.294.664l-.2-.478a23.291,23.291,0,0,1,.963,2.85,2.065,2.065,0,0,0,.919,1.195,2,2,0,0,0,2.736-.717,2.081,2.081,0,0,0,.2-1.541,25.45,25.45,0,0,0-1.459-3.991,2.01,2.01,0,0,0-1.2-.92,2.048,2.048,0,0,0-1.541.2,2.017,2.017,0,0,0-.919,1.195l-.071.532a1.985,1.985,0,0,0,.273,1.009Z"></path><path class="c" d="M205.524,314.585v9.931a2.011,2.011,0,0,0,.99,1.726q11.38,6.564,22.775,13.1c1.705.981,3.352,2.139,5.351,2.372,2.664.311,4.657-.912,6.857-2.183l13.231-7.641,7.585-4.38a13.223,13.223,0,0,0,3.567-2.494,7.335,7.335,0,0,0,1.761-4.66c.091-2.575-3.909-2.571-4,0-.083,2.353-2.418,3.163-4.177,4.18l-6.432,3.714-12.81,7.4c-1.519.877-3.191,2.284-5.033,2.12-1.44-.128-2.869-1.3-4.1-2q-5.631-3.243-11.265-6.48t-11.3-6.5l.991,1.727v-9.931c0-2.574-4-2.578-4,0Z"></path><path class="c" d="M238.009,339.518v-44.33c0-1.3-.25-2.92.49-4.057a7.019,7.019,0,0,1,2.528-1.894q1.548-.918,3.1-1.831,7.031-4.134,14.113-8.181,1.584-.9,3.17-1.8c.284-.161,2.709-1.246,2.712-1.52,0,.226-.5-.086-.458-.1-.239.065.119-.269-.04-.013-.1.155,0,.689,0,.875q0,1,0,1.994,0,5.877,0,11.754.007,14.97.011,29.94c0,2.574,4,2.578,4,0q0-14.013-.01-28.025,0-6.416,0-12.83a29.057,29.057,0,0,0-.064-4.417,3.7,3.7,0,0,0-2.761-3.017c-1.458-.337-2.64.346-3.863,1.031-4.728,2.648-9.42,5.36-14.1,8.086q-3.518,2.049-7.023,4.12c-2.367,1.4-4.718,2.722-5.534,5.559a17.254,17.254,0,0,0-.269,4.683v43.969c0,2.574,4,2.578,4,0Z"></path><path class="c" d="M237.016,327.085q14.727-8.721,29.616-17.168c2.239-1.269.226-4.726-2.019-3.454Q249.724,314.9,235,323.631c-2.213,1.311-.2,4.77,2.019,3.454Z"></path><path class="c" d="M205.275,168.032c-1.343,1.215-2.7,2.41-4,3.677a12.694,12.694,0,0,0-3.566,5.016,7.186,7.186,0,0,0,1.842,7.673,10.287,10.287,0,0,0,8.145,2.094,37.172,37.172,0,0,0,9.481-2.451,2.061,2.061,0,0,0,1.4-2.46,2.014,2.014,0,0,0-2.46-1.4,32,32,0,0,1-8.88,2.358c-2.157.191-5.407-.063-5.891-2.645a4.5,4.5,0,0,1,.683-3.079c.054-.085.431-.566.12-.187.11-.134.22-.267.333-.4.348-.4.714-.784,1.086-1.161,1.451-1.47,3.006-2.828,4.537-4.213a2,2,0,0,0-2.829-2.828Z"></path><path class="c" d="M219.847,174.761c-3.035,2.059-5.149,5.214-4.883,9a8,8,0,0,0,6.533,7.018c4.1.865,8.4-.188,12.268-1.551,3.724-1.312,7.134-2.728,8.7-6.642,1.295-3.233.62-8.673-2.826-10.431-2.289-1.168-4.315,2.282-2.019,3.453.906.463,1.283,1.852,1.425,2.782a5.592,5.592,0,0,1-1.2,4.333,8.677,8.677,0,0,1-3.872,2.187,41.549,41.549,0,0,1-5.825,1.791c-2.689.564-6.853,1-8.684-1.615-1.677-2.395.4-5.509,2.4-6.867,2.118-1.438.119-4.905-2.019-3.454Z"></path><path class="c" d="M218.536,124.74q0,18.253.084,36.507.033,5.391.094,10.782c.031,2.572,4.031,2.579,4,0-.158-13.119-.168-26.24-.176-39.36q0-3.965,0-7.929c0-2.573-4-2.578-4,0Z"></path><path class="c" d="M201.292,122.518c.168,8.094.51,16.185.851,24.273q.272,6.449.573,12.9.126,2.688.26,5.376a22.813,22.813,0,0,0,.285,4.615c.361,1.312,2.2,2.01,3.35,2.432a16.143,16.143,0,0,0,3.844.794,37.116,37.116,0,0,0,9.269-.456,2.014,2.014,0,0,0,1.4-2.461,2.051,2.051,0,0,0-2.46-1.4c-3.865.563-9.066,1.252-12.461-1.171l.991,1.727c-.685-12.415-1.2-24.844-1.626-37.271-.107-3.118-.207-6.237-.272-9.357-.054-2.57-4.054-2.579-4,0Z"></path><path class="c" d="M221.669,174.8a20.23,20.23,0,0,0,9.194,2.172,30.757,30.757,0,0,0,8.34-.8c1.133-.31,2.783-.757,3.416-1.839.488-.835.287-2.206.295-3.153q.027-3.024.032-6.047c.021-9.935-.05-19.872-.268-29.8-.1-4.684-.227-9.371-.5-14.049-.148-2.559-4.149-2.576-4,0,.81,14.013.778,28.1.767,42.134q0,4.955-.056,9.91l.99-1.727c-2.139,1.339-5.086,1.279-7.522,1.36a17.193,17.193,0,0,1-8.672-1.608c-2.281-1.186-4.306,2.265-2.019,3.454Z"></path><path class="c" d="M236.2,62.765a13.724,13.724,0,0,0,6.288-1.346,8.808,8.808,0,0,0,4.114-4.791,7.522,7.522,0,0,0-.617-6.216,7.012,7.012,0,0,0-4.747-3.256,2,2,0,0,0-1.063,3.857c.388.077.756.181,1.135.292s-.321-.2.026.015c.108.066.226.135.337.2.323.177-.292-.291.07.051.123.117.251.228.372.349s.228.24.337.366c-.278-.32.043.089.079.149.089.146.165.3.24.451-.195-.4.042.147.071.244.057.194.1.39.14.588-.076-.348,0-.012.009.157s.012.348.006.522c0,.116-.011.232-.022.348q.051-.322.013-.1a7.815,7.815,0,0,1-.305,1.091c.152-.4-.071.119-.095.164-.083.155-.173.307-.269.454-.064.1-.13.2-.2.29.118-.149.131-.168.042-.059-.141.149-.269.308-.415.453-.125.125-.256.239-.386.358-.334.3.2-.108-.149.117a11.74,11.74,0,0,1-1.053.613c-.338.173.2-.054-.227.095-.173.062-.345.124-.52.178a9.557,9.557,0,0,1-1.169.268c.358-.063.028-.005-.145.011s-.353.029-.53.04c-.455.027-.912.039-1.368.052a2,2,0,0,0,0,4Z"></path><path class="c" d="M163.665,35.76Q169.308,48,174.257,60.536a2.061,2.061,0,0,0,2.46,1.4,2.014,2.014,0,0,0,1.4-2.46q-5.136-13.017-11-25.732a2.015,2.015,0,0,0-2.736-.717,2.046,2.046,0,0,0-.718,2.736Z"></path><path class="c" d="M232.505,67.361c8.272,2.973,12.337,11.528,13.986,19.576a26.88,26.88,0,0,1-6.774,23.628,27.232,27.232,0,0,1-11.317,7.147c-2.439.79-1.4,4.654,1.063,3.858a30.747,30.747,0,0,0,21.2-33.834,36.673,36.673,0,0,0-4.884-14.063A24.574,24.574,0,0,0,233.568,63.5c-2.426-.873-3.471,2.991-1.063,3.857Z"></path><path class="c" d="M230.439,91.61a13.051,13.051,0,0,1-.8,2.708l.2-.478a12.965,12.965,0,0,1-1.665,2.842,2,2,0,0,0-.2,1.541,2.044,2.044,0,0,0,.919,1.2,2.018,2.018,0,0,0,1.541.2l.478-.2a2.008,2.008,0,0,0,.718-.718,14.089,14.089,0,0,0,2.671-6.027,2.156,2.156,0,0,0-.2-1.541,2,2,0,0,0-2.736-.717,1.954,1.954,0,0,0-.919,1.195Z"></path><path class="c" d="M207.411,63.177c-4.957,2.978-10.085,6.1-13.789,10.633h2.828c-2.174-2.18-4.256-4.447-6.29-6.758a2.012,2.012,0,0,0-2.424-.313l-10.467,6.785a2.04,2.04,0,0,0-.717,2.737c2.945,5.046,6.147,9.955,9.561,14.7,2.237,3.11,6.433,7.95,10.592,4.791a2.064,2.064,0,0,0,.718-2.736,2.014,2.014,0,0,0-2.737-.718,2.064,2.064,0,0,1-.81.453c.13-.025-.356-.051-.348-.049a4.22,4.22,0,0,1-1.557-.977,22.3,22.3,0,0,1-3.332-4.12c-2.975-4.4-5.952-8.767-8.633-13.361l-.718,2.736,10.467-6.785-2.423-.313c2.033,2.311,4.116,4.579,6.29,6.758a2.012,2.012,0,0,0,2.828,0c3.507-4.288,8.288-7.188,12.98-10.007,2.2-1.324.195-4.784-2.019-3.454Z"></path><path class="c" d="M189.7,67.64a10.682,10.682,0,0,0-2.189-7.97c-2.056-2.455-5.363-2.988-8.367-2.421-5.986,1.13-10.293,7.521-7.993,13.43,1.221,3.138,4.7,6.88,8.449,5.646a2.044,2.044,0,0,0,1.4-2.46,2.021,2.021,0,0,0-2.46-1.4.944.944,0,0,1-.834-.031,4.33,4.33,0,0,1-1.118-.706,6.024,6.024,0,0,1-1.634-2.252,5.716,5.716,0,0,1,.376-5.106,6.672,6.672,0,0,1,4.217-3.117,7.244,7.244,0,0,1,2.6-.2,6.087,6.087,0,0,1,.741.175c.1.031.206.065.307.1.327.12-.2-.106.115.051a2.891,2.891,0,0,1,1,.709,4.8,4.8,0,0,1,1.271,2.506c.038.162.133.689.131.674-.024-.188.012.154.012.153.011.173.026.346.033.519a12.138,12.138,0,0,1-.06,1.7,2.012,2.012,0,0,0,2,2,2.045,2.045,0,0,0,2-2Z"></path><path class="c" d="M197.4,103.985c.358,5.947.048,11.923.484,17.867a2.062,2.062,0,0,0,2,2c6.793.546,13.592,1.05,20.413,1a101.29,101.29,0,0,0,22.579-2.8,2.026,2.026,0,0,0,1.468-1.929,60.676,60.676,0,0,0-.484-6.666,2.061,2.061,0,0,0-2-2,2.012,2.012,0,0,0-2,2,60.676,60.676,0,0,1,.484,6.666l1.469-1.928a96.644,96.644,0,0,1-21.98,2.66c-6.666.027-13.31-.464-19.949-1l2,2c-.436-5.944-.126-11.92-.484-17.867-.154-2.558-4.155-2.576-4,0Z"></path><path class="c" d="M221.948,100.92c-1.938-5.006-3.27-10.231-5.066-15.289a2.051,2.051,0,0,0-1.929-1.468c-6.784.355-13.567.753-20.355,1.034a2.023,2.023,0,0,0-1.929,2.531q3.537,12.27,7.643,24.366a2.038,2.038,0,0,0,1.928,1.468c2.652-.228,5.311-.359,7.958-.644a2.058,2.058,0,0,0,2-2,2.014,2.014,0,0,0-2-2c-2.647.285-5.306.416-7.958.644l1.929,1.468q-4.109-12.092-7.643-24.365L194.6,89.2c6.788-.281,13.571-.679,20.355-1.034l-1.928-1.469c1.8,5.058,3.128,10.283,5.066,15.289a2.059,2.059,0,0,0,2.461,1.4,2.014,2.014,0,0,0,1.4-2.46Z"></path><path class="c" d="M215.122,101.017a8.872,8.872,0,0,0-5.633,9.281,11.617,11.617,0,0,0,1.457,4.866,12.036,12.036,0,0,0,4.268,3.935,13.4,13.4,0,0,0,12.435,1.08,12.381,12.381,0,0,0,5.667-3.975,9.127,9.127,0,0,0,1.8-5.936c-.112-2.461-.871-4.991-3.021-6.413a6.863,6.863,0,0,0-7.829,0h2.019c-3.3-2.278-7.126-4.088-11.167-2.84-2.453.758-1.406,4.62,1.063,3.858a5.8,5.8,0,0,1,4.052.18,18.482,18.482,0,0,1,4.033,2.256,1.937,1.937,0,0,0,2.019,0,3.032,3.032,0,0,1,3.758-.03,2.388,2.388,0,0,1,.685.967,6.5,6.5,0,0,1,.4,2.32c.05,3.017-2.174,4.857-4.824,5.863a9.325,9.325,0,0,1-8.264-.311,17.821,17.821,0,0,1-2.276-1.491,7.5,7.5,0,0,1-.67-.563c-.079-.078-.152-.161-.23-.24-.058-.063-.113-.128-.167-.195.115.152.13.17.047.054-.141-.2-.272-.407-.393-.622-.047-.084-.378-.755-.261-.482a8.78,8.78,0,0,1-.526-1.767,6.85,6.85,0,0,1,.218-3.366,4.264,4.264,0,0,1,2.4-2.573,2.054,2.054,0,0,0,1.4-2.461A2.018,2.018,0,0,0,215.122,101.017Z"></path><path class="c" d="M205.254,36.853c-3.769,6.87-4.514,15.423-.529,22.392a19.938,19.938,0,0,0,31.8,3.6c1.769-1.869-1.055-4.7-2.829-2.829a16.11,16.11,0,0,1-22.19,1.262c-6.518-5.717-6.769-15.17-2.8-22.41,1.239-2.258-2.214-4.279-3.454-2.019Z"></path><path class="c" d="M214.4,46.465a3.135,3.135,0,0,1-1.473,2.242,2.442,2.442,0,0,1-1.816.185,2.728,2.728,0,0,1-1.839-1.649,3.2,3.2,0,0,1,1.1-3.6,2.53,2.53,0,0,1,3.411.481A2.821,2.821,0,0,1,214.4,46.465Z"></path><path class="c" d="M225.9,50.768a3.132,3.132,0,0,1-1.473,2.241,2.438,2.438,0,0,1-1.816.186,2.728,2.728,0,0,1-1.839-1.649,3.2,3.2,0,0,1,1.1-3.6,2.53,2.53,0,0,1,3.411.481A2.821,2.821,0,0,1,225.9,50.768Z"></path><path class="c" d="M208.708,38.872a18.7,18.7,0,0,1,5.92-7.687,17.219,17.219,0,0,1,9.814-2.962c6.511-.15,12.847,2.7,15.968,8.62A15.944,15.944,0,0,1,241.8,48.234c-.643,2.494,3.214,3.558,3.857,1.063a20,20,0,0,0-7.73-21.151c-6.783-4.7-16.636-5.449-23.913-1.32a21.476,21.476,0,0,0-8.763,10.027,2.065,2.065,0,0,0,.718,2.737,2.014,2.014,0,0,0,2.736-.718Z"></path><path class="c" d="M209.936,35.608a23.034,23.034,0,0,0,7.675,5.907c1.322.62,3.345,1.76,4.856,1.345,2.072-.57,2.03-2.985,2.314-4.714l-3.343.882c2.159,1.938,4.3,3.894,6.476,5.815a18.338,18.338,0,0,0,6.2,3.407c2.437.845,3.484-3.018,1.063-3.858-4.382-1.519-7.539-5.163-10.912-8.192-1.008-.905-3.082-.705-3.343.882a9.271,9.271,0,0,1-.471,2.735l.718-.718-.245.105,1.01-.273a7.009,7.009,0,0,1-2.306-.87,21.5,21.5,0,0,1-2.582-1.44,20.031,20.031,0,0,1-4.284-3.842c-1.671-1.962-4.489.878-2.828,2.829Z"></path><path class="c" d="M208.1,65.68a39.045,39.045,0,0,0,3.061,10.442,30.235,30.235,0,0,0,2.417,4.468,4.063,4.063,0,0,0,2.305,1.924,3.761,3.761,0,0,0,2.87-.566,24.353,24.353,0,0,0,3.927-3.5c1.116-1.12,2.183-2.29,3.187-3.512a53,53,0,0,0,5.732-8.58c1.219-2.267-2.233-4.289-3.454-2.019a49.225,49.225,0,0,1-10.28,13.18c-.283.257-.56.533-.86.77-.127.1-.5.253-.527.348q1.014.532.641.065-.138-.2-.268-.415c-.21-.332-.412-.669-.609-1.009a32.271,32.271,0,0,1-1.9-3.8,36.877,36.877,0,0,1-2.387-8.862,2.013,2.013,0,0,0-2.46-1.4,2.052,2.052,0,0,0-1.4,2.46Z"></path><path class="c" d="M252.511,267.918q1.355.784,2.71,1.568a7.075,7.075,0,0,0,1.507.794,3.264,3.264,0,0,0,2.492-.75q2.949-1.7,5.9-3.409,11.159-6.45,22.321-12.893c2.229-1.286.217-4.744-2.018-3.454q-14.589,8.419-29.17,16.85h2.018c-1.251-.711-2.494-1.438-3.74-2.16-2.231-1.293-4.247,2.163-2.018,3.454Z"></path><path class="c" d="M128.911,285.628c8.494,4.87,16.957,9.8,25.434,14.7l17.163,9.918,5.81,3.358a14.169,14.169,0,0,0,2.95,1.629c1.386.38,3.39-1.27,4.523-1.924l7.223-4.171q9.483-5.472,18.965-10.947c2.229-1.287.217-4.745-2.018-3.454q-14.586,8.42-29.17,16.84h2.018q-8.8-5.057-17.573-10.154l-26.731-15.448c-2.192-1.267-4.38-2.539-6.576-3.8-2.237-1.282-4.254,2.173-2.018,3.454Z"></path></svg>